<mxfile host="app.diagrams.net" agent="Mozilla/5.0 (X11; Linux x86_64; rv:137.0) Gecko/20100101 Firefox/137.0" version="26.2.7">
  <diagram name="Page-1" id="zR2J77hOTKXTAiFC28Ge">
    <mxGraphModel dx="1958" dy="674" grid="1" gridSize="10" guides="1" tooltips="1" connect="1" arrows="1" fold="1" page="1" pageScale="1" pageWidth="850" pageHeight="1100" math="0" shadow="0">
      <root>
        <mxCell id="0" />
        <mxCell id="1" parent="0" />
        <mxCell id="EWCJP9FTuBSWdqRKk12x-1" value="Socio" style="rounded=0;whiteSpace=wrap;html=1;" parent="1" vertex="1">
          <mxGeometry x="310" y="570" width="120" height="60" as="geometry" />
        </mxCell>
        <mxCell id="EWCJP9FTuBSWdqRKk12x-3" value="Asistente" style="rounded=0;whiteSpace=wrap;html=1;" parent="1" vertex="1">
          <mxGeometry x="510" y="570" width="120" height="60" as="geometry" />
        </mxCell>
        <mxCell id="h1HSGQklRxWJN3mxshpJ-13" style="edgeStyle=orthogonalEdgeStyle;rounded=0;orthogonalLoop=1;jettySize=auto;html=1;entryX=0;entryY=0.5;entryDx=0;entryDy=0;endArrow=none;startFill=0;" parent="1" source="h1HSGQklRxWJN3mxshpJ-14" target="h1HSGQklRxWJN3mxshpJ-12" edge="1">
          <mxGeometry relative="1" as="geometry" />
        </mxCell>
        <mxCell id="EWCJP9FTuBSWdqRKk12x-5" value="Persona" style="rounded=0;whiteSpace=wrap;html=1;" parent="1" vertex="1">
          <mxGeometry x="390" y="339" width="140" height="60" as="geometry" />
        </mxCell>
        <mxCell id="h1HSGQklRxWJN3mxshpJ-31" style="edgeStyle=orthogonalEdgeStyle;rounded=0;orthogonalLoop=1;jettySize=auto;html=1;entryX=0.5;entryY=0;entryDx=0;entryDy=0;endArrow=none;startFill=0;" parent="1" source="EWCJP9FTuBSWdqRKk12x-8" target="h1HSGQklRxWJN3mxshpJ-30" edge="1">
          <mxGeometry relative="1" as="geometry" />
        </mxCell>
        <mxCell id="EWCJP9FTuBSWdqRKk12x-8" value="Casillero" style="rounded=0;whiteSpace=wrap;html=1;" parent="1" vertex="1">
          <mxGeometry x="-101" y="570" width="120" height="60" as="geometry" />
        </mxCell>
        <mxCell id="EWCJP9FTuBSWdqRKk12x-11" value="Jugador" style="rounded=0;whiteSpace=wrap;html=1;" parent="1" vertex="1">
          <mxGeometry x="108" y="1029" width="160" height="60" as="geometry" />
        </mxCell>
        <mxCell id="EWCJP9FTuBSWdqRKk12x-12" value="Casillero_Jockey" style="rounded=0;whiteSpace=wrap;html=1;" parent="1" vertex="1">
          <mxGeometry x="-102" y="810" width="120" height="60" as="geometry" />
        </mxCell>
        <mxCell id="EWCJP9FTuBSWdqRKk12x-14" value="" style="group" parent="1" vertex="1" connectable="0">
          <mxGeometry x="446" y="311" width="8" height="28" as="geometry" />
        </mxCell>
        <mxCell id="EWCJP9FTuBSWdqRKk12x-15" value="" style="ellipse;whiteSpace=wrap;html=1;aspect=fixed;" parent="EWCJP9FTuBSWdqRKk12x-14" vertex="1">
          <mxGeometry width="8" height="8" as="geometry" />
        </mxCell>
        <mxCell id="EWCJP9FTuBSWdqRKk12x-16" style="edgeStyle=orthogonalEdgeStyle;rounded=0;orthogonalLoop=1;jettySize=auto;html=1;endArrow=none;startFill=0;" parent="EWCJP9FTuBSWdqRKk12x-14" edge="1">
          <mxGeometry relative="1" as="geometry">
            <mxPoint x="4" y="28" as="targetPoint" />
            <mxPoint x="4" y="8" as="sourcePoint" />
          </mxGeometry>
        </mxCell>
        <mxCell id="EWCJP9FTuBSWdqRKk12x-17" value="" style="group" parent="1" vertex="1" connectable="0">
          <mxGeometry x="466" y="311" width="8" height="28" as="geometry" />
        </mxCell>
        <mxCell id="EWCJP9FTuBSWdqRKk12x-18" value="" style="ellipse;whiteSpace=wrap;html=1;aspect=fixed;" parent="EWCJP9FTuBSWdqRKk12x-17" vertex="1">
          <mxGeometry width="8" height="8" as="geometry" />
        </mxCell>
        <mxCell id="EWCJP9FTuBSWdqRKk12x-19" style="edgeStyle=orthogonalEdgeStyle;rounded=0;orthogonalLoop=1;jettySize=auto;html=1;endArrow=none;startFill=0;" parent="EWCJP9FTuBSWdqRKk12x-17" edge="1">
          <mxGeometry relative="1" as="geometry">
            <mxPoint x="4" y="28" as="targetPoint" />
            <mxPoint x="4" y="8" as="sourcePoint" />
          </mxGeometry>
        </mxCell>
        <mxCell id="EWCJP9FTuBSWdqRKk12x-20" value="" style="group" parent="1" vertex="1" connectable="0">
          <mxGeometry x="486" y="311" width="8" height="28" as="geometry" />
        </mxCell>
        <mxCell id="EWCJP9FTuBSWdqRKk12x-21" value="" style="ellipse;whiteSpace=wrap;html=1;aspect=fixed;" parent="EWCJP9FTuBSWdqRKk12x-20" vertex="1">
          <mxGeometry width="8" height="8" as="geometry" />
        </mxCell>
        <mxCell id="EWCJP9FTuBSWdqRKk12x-22" style="edgeStyle=orthogonalEdgeStyle;rounded=0;orthogonalLoop=1;jettySize=auto;html=1;endArrow=none;startFill=0;" parent="EWCJP9FTuBSWdqRKk12x-20" edge="1">
          <mxGeometry relative="1" as="geometry">
            <mxPoint x="4" y="28" as="targetPoint" />
            <mxPoint x="4" y="8" as="sourcePoint" />
          </mxGeometry>
        </mxCell>
        <mxCell id="EWCJP9FTuBSWdqRKk12x-23" value="&lt;font style=&quot;font-size: 8px;&quot;&gt;dni&lt;/font&gt;" style="text;html=1;align=center;verticalAlign=middle;resizable=0;points=[];autosize=1;strokeColor=none;fillColor=none;rotation=-60;" parent="1" vertex="1">
          <mxGeometry x="391" y="286" width="40" height="30" as="geometry" />
        </mxCell>
        <mxCell id="EWCJP9FTuBSWdqRKk12x-24" value="" style="group" parent="1" vertex="1" connectable="0">
          <mxGeometry x="506" y="311" width="8" height="28" as="geometry" />
        </mxCell>
        <mxCell id="EWCJP9FTuBSWdqRKk12x-25" value="" style="ellipse;whiteSpace=wrap;html=1;aspect=fixed;" parent="EWCJP9FTuBSWdqRKk12x-24" vertex="1">
          <mxGeometry width="8" height="8" as="geometry" />
        </mxCell>
        <mxCell id="EWCJP9FTuBSWdqRKk12x-26" style="edgeStyle=orthogonalEdgeStyle;rounded=0;orthogonalLoop=1;jettySize=auto;html=1;endArrow=none;startFill=0;" parent="EWCJP9FTuBSWdqRKk12x-24" edge="1">
          <mxGeometry relative="1" as="geometry">
            <mxPoint x="4" y="28" as="targetPoint" />
            <mxPoint x="4" y="8" as="sourcePoint" />
          </mxGeometry>
        </mxCell>
        <mxCell id="EWCJP9FTuBSWdqRKk12x-27" value="" style="group" parent="1" vertex="1" connectable="0">
          <mxGeometry x="426" y="311" width="8" height="28" as="geometry" />
        </mxCell>
        <mxCell id="EWCJP9FTuBSWdqRKk12x-28" value="" style="ellipse;whiteSpace=wrap;html=1;aspect=fixed;" parent="EWCJP9FTuBSWdqRKk12x-27" vertex="1">
          <mxGeometry width="8" height="8" as="geometry" />
        </mxCell>
        <mxCell id="EWCJP9FTuBSWdqRKk12x-29" style="edgeStyle=orthogonalEdgeStyle;rounded=0;orthogonalLoop=1;jettySize=auto;html=1;endArrow=none;startFill=0;" parent="EWCJP9FTuBSWdqRKk12x-27" edge="1">
          <mxGeometry relative="1" as="geometry">
            <mxPoint x="4" y="28" as="targetPoint" />
            <mxPoint x="4" y="8" as="sourcePoint" />
          </mxGeometry>
        </mxCell>
        <mxCell id="EWCJP9FTuBSWdqRKk12x-30" value="&lt;font style=&quot;font-size: 8px;&quot;&gt;nombre&lt;/font&gt;" style="text;html=1;align=center;verticalAlign=middle;resizable=0;points=[];autosize=1;strokeColor=none;fillColor=none;rotation=-60;" parent="1" vertex="1">
          <mxGeometry x="409" y="280" width="50" height="30" as="geometry" />
        </mxCell>
        <mxCell id="EWCJP9FTuBSWdqRKk12x-31" value="&lt;font style=&quot;font-size: 8px;&quot;&gt;apellido&lt;/font&gt;" style="text;html=1;align=center;verticalAlign=middle;resizable=0;points=[];autosize=1;strokeColor=none;fillColor=none;rotation=-60;" parent="1" vertex="1">
          <mxGeometry x="427" y="275" width="60" height="30" as="geometry" />
        </mxCell>
        <mxCell id="EWCJP9FTuBSWdqRKk12x-32" value="&lt;font style=&quot;font-size: 8px;&quot;&gt;fecha_nacimiento&lt;/font&gt;" style="text;html=1;align=center;verticalAlign=middle;resizable=0;points=[];autosize=1;strokeColor=none;fillColor=none;rotation=-60;" parent="1" vertex="1">
          <mxGeometry x="437" y="260" width="100" height="30" as="geometry" />
        </mxCell>
        <mxCell id="EWCJP9FTuBSWdqRKk12x-33" value="&lt;font style=&quot;font-size: 8px;&quot;&gt;estado_civil&lt;/font&gt;" style="text;html=1;align=center;verticalAlign=middle;resizable=0;points=[];autosize=1;strokeColor=none;fillColor=none;rotation=-60;" parent="1" vertex="1">
          <mxGeometry x="463" y="267" width="80" height="30" as="geometry" />
        </mxCell>
        <mxCell id="EWCJP9FTuBSWdqRKk12x-34" value="&lt;font style=&quot;font-size: 8px;&quot;&gt;direccion&lt;/font&gt;" style="text;html=1;align=center;verticalAlign=middle;resizable=0;points=[];autosize=1;strokeColor=none;fillColor=none;rotation=-60;" parent="1" vertex="1">
          <mxGeometry x="485" y="273" width="70" height="30" as="geometry" />
        </mxCell>
        <mxCell id="EWCJP9FTuBSWdqRKk12x-35" value="" style="ellipse;whiteSpace=wrap;html=1;aspect=fixed;fillColor=light-dark(#000000, #ffffff);" parent="1" vertex="1">
          <mxGeometry x="406" y="311" width="8" height="8" as="geometry" />
        </mxCell>
        <mxCell id="EWCJP9FTuBSWdqRKk12x-36" style="edgeStyle=orthogonalEdgeStyle;rounded=0;orthogonalLoop=1;jettySize=auto;html=1;endArrow=none;startFill=0;strokeColor=default;" parent="1" edge="1">
          <mxGeometry relative="1" as="geometry">
            <mxPoint x="410" y="339" as="targetPoint" />
            <mxPoint x="410" y="319" as="sourcePoint" />
          </mxGeometry>
        </mxCell>
        <mxCell id="EWCJP9FTuBSWdqRKk12x-37" value="" style="ellipse;whiteSpace=wrap;html=1;aspect=fixed;fillColor=default;" parent="1" vertex="1">
          <mxGeometry x="344" y="542" width="8" height="8" as="geometry" />
        </mxCell>
        <mxCell id="EWCJP9FTuBSWdqRKk12x-38" style="edgeStyle=orthogonalEdgeStyle;rounded=0;orthogonalLoop=1;jettySize=auto;html=1;endArrow=none;startFill=0;" parent="1" edge="1">
          <mxGeometry relative="1" as="geometry">
            <mxPoint x="348" y="570" as="targetPoint" />
            <mxPoint x="348" y="550" as="sourcePoint" />
          </mxGeometry>
        </mxCell>
        <mxCell id="EWCJP9FTuBSWdqRKk12x-39" value="&lt;font style=&quot;font-size: 8px;&quot;&gt;fecha_alta&lt;/font&gt;" style="text;html=1;align=center;verticalAlign=middle;resizable=0;points=[];autosize=1;strokeColor=none;fillColor=none;rotation=-60;" parent="1" vertex="1">
          <mxGeometry x="323" y="502" width="70" height="30" as="geometry" />
        </mxCell>
        <mxCell id="EWCJP9FTuBSWdqRKk12x-40" value="" style="ellipse;whiteSpace=wrap;html=1;aspect=fixed;fillColor=default;" parent="1" vertex="1">
          <mxGeometry x="596" y="542" width="8" height="8" as="geometry" />
        </mxCell>
        <mxCell id="EWCJP9FTuBSWdqRKk12x-41" style="edgeStyle=orthogonalEdgeStyle;rounded=0;orthogonalLoop=1;jettySize=auto;html=1;endArrow=none;startFill=0;" parent="1" edge="1">
          <mxGeometry relative="1" as="geometry">
            <mxPoint x="600" y="570" as="targetPoint" />
            <mxPoint x="600" y="550" as="sourcePoint" />
          </mxGeometry>
        </mxCell>
        <mxCell id="EWCJP9FTuBSWdqRKk12x-42" value="&lt;font style=&quot;font-size: 8px;&quot;&gt;fecha_ult_acceso&lt;/font&gt;" style="text;html=1;align=center;verticalAlign=middle;resizable=0;points=[];autosize=1;strokeColor=none;fillColor=none;rotation=-60;" parent="1" vertex="1">
          <mxGeometry x="567" y="489" width="100" height="30" as="geometry" />
        </mxCell>
        <mxCell id="EWCJP9FTuBSWdqRKk12x-43" style="edgeStyle=orthogonalEdgeStyle;rounded=0;orthogonalLoop=1;jettySize=auto;html=1;entryX=0.5;entryY=1;entryDx=0;entryDy=0;endArrow=none;startFill=0;" parent="1" source="EWCJP9FTuBSWdqRKk12x-45" target="EWCJP9FTuBSWdqRKk12x-3" edge="1">
          <mxGeometry relative="1" as="geometry">
            <Array as="points">
              <mxPoint x="570" y="680" />
            </Array>
          </mxGeometry>
        </mxCell>
        <mxCell id="EWCJP9FTuBSWdqRKk12x-44" style="edgeStyle=orthogonalEdgeStyle;rounded=0;orthogonalLoop=1;jettySize=auto;html=1;entryX=0.5;entryY=1;entryDx=0;entryDy=0;endArrow=none;startFill=0;" parent="1" source="EWCJP9FTuBSWdqRKk12x-45" target="EWCJP9FTuBSWdqRKk12x-1" edge="1">
          <mxGeometry relative="1" as="geometry" />
        </mxCell>
        <mxCell id="EWCJP9FTuBSWdqRKk12x-45" value="vinculo" style="rhombus;whiteSpace=wrap;html=1;" parent="1" vertex="1">
          <mxGeometry x="437" y="640" width="80" height="80" as="geometry" />
        </mxCell>
        <mxCell id="EWCJP9FTuBSWdqRKk12x-46" value="(0,n)" style="text;html=1;align=center;verticalAlign=middle;resizable=0;points=[];autosize=1;strokeColor=none;fillColor=none;" parent="1" vertex="1">
          <mxGeometry x="514" y="655" width="60" height="30" as="geometry" />
        </mxCell>
        <mxCell id="EWCJP9FTuBSWdqRKk12x-47" value="(0,n)" style="text;html=1;align=center;verticalAlign=middle;resizable=0;points=[];autosize=1;strokeColor=none;fillColor=none;" parent="1" vertex="1">
          <mxGeometry x="367" y="655" width="60" height="30" as="geometry" />
        </mxCell>
        <mxCell id="EWCJP9FTuBSWdqRKk12x-48" style="edgeStyle=orthogonalEdgeStyle;rounded=0;orthogonalLoop=1;jettySize=auto;html=1;entryX=0;entryY=0.5;entryDx=0;entryDy=0;endArrow=none;startFill=0;" parent="1" source="EWCJP9FTuBSWdqRKk12x-50" target="EWCJP9FTuBSWdqRKk12x-1" edge="1">
          <mxGeometry relative="1" as="geometry" />
        </mxCell>
        <mxCell id="EWCJP9FTuBSWdqRKk12x-49" style="edgeStyle=orthogonalEdgeStyle;rounded=0;orthogonalLoop=1;jettySize=auto;html=1;entryX=1;entryY=0.5;entryDx=0;entryDy=0;endArrow=none;startFill=0;" parent="1" source="EWCJP9FTuBSWdqRKk12x-50" target="EWCJP9FTuBSWdqRKk12x-8" edge="1">
          <mxGeometry relative="1" as="geometry">
            <mxPoint x="60" y="650" as="targetPoint" />
          </mxGeometry>
        </mxCell>
        <mxCell id="EWCJP9FTuBSWdqRKk12x-50" value="cas_soc" style="rhombus;whiteSpace=wrap;html=1;" parent="1" vertex="1">
          <mxGeometry x="121" y="560" width="80" height="80" as="geometry" />
        </mxCell>
        <mxCell id="EWCJP9FTuBSWdqRKk12x-51" value="(0,n)" style="text;html=1;align=center;verticalAlign=middle;resizable=0;points=[];autosize=1;strokeColor=none;fillColor=none;" parent="1" vertex="1">
          <mxGeometry x="250" y="575" width="60" height="30" as="geometry" />
        </mxCell>
        <mxCell id="EWCJP9FTuBSWdqRKk12x-52" value="(0,n)" style="text;html=1;align=center;verticalAlign=middle;resizable=0;points=[];autosize=1;strokeColor=none;fillColor=none;" parent="1" vertex="1">
          <mxGeometry x="16" y="575" width="60" height="30" as="geometry" />
        </mxCell>
        <mxCell id="EWCJP9FTuBSWdqRKk12x-53" value="" style="group" parent="1" vertex="1" connectable="0">
          <mxGeometry x="-26" y="542" width="8" height="28" as="geometry" />
        </mxCell>
        <mxCell id="EWCJP9FTuBSWdqRKk12x-54" value="" style="ellipse;whiteSpace=wrap;html=1;aspect=fixed;" parent="EWCJP9FTuBSWdqRKk12x-53" vertex="1">
          <mxGeometry width="8" height="8" as="geometry" />
        </mxCell>
        <mxCell id="EWCJP9FTuBSWdqRKk12x-55" style="edgeStyle=orthogonalEdgeStyle;rounded=0;orthogonalLoop=1;jettySize=auto;html=1;endArrow=none;startFill=0;" parent="EWCJP9FTuBSWdqRKk12x-53" edge="1">
          <mxGeometry relative="1" as="geometry">
            <mxPoint x="4" y="28" as="targetPoint" />
            <mxPoint x="4" y="8" as="sourcePoint" />
          </mxGeometry>
        </mxCell>
        <mxCell id="EWCJP9FTuBSWdqRKk12x-56" value="&lt;font style=&quot;font-size: 8px;&quot;&gt;cod&lt;/font&gt;" style="text;html=1;align=center;verticalAlign=middle;resizable=0;points=[];autosize=1;strokeColor=none;fillColor=none;rotation=-60;" parent="1" vertex="1">
          <mxGeometry x="-82" y="516" width="40" height="30" as="geometry" />
        </mxCell>
        <mxCell id="EWCJP9FTuBSWdqRKk12x-57" value="" style="group" parent="1" vertex="1" connectable="0">
          <mxGeometry x="-46" y="542" width="8" height="28" as="geometry" />
        </mxCell>
        <mxCell id="EWCJP9FTuBSWdqRKk12x-58" value="" style="ellipse;whiteSpace=wrap;html=1;aspect=fixed;" parent="EWCJP9FTuBSWdqRKk12x-57" vertex="1">
          <mxGeometry width="8" height="8" as="geometry" />
        </mxCell>
        <mxCell id="EWCJP9FTuBSWdqRKk12x-59" style="edgeStyle=orthogonalEdgeStyle;rounded=0;orthogonalLoop=1;jettySize=auto;html=1;endArrow=none;startFill=0;" parent="EWCJP9FTuBSWdqRKk12x-57" edge="1">
          <mxGeometry relative="1" as="geometry">
            <mxPoint x="4" y="28" as="targetPoint" />
            <mxPoint x="4" y="8" as="sourcePoint" />
          </mxGeometry>
        </mxCell>
        <mxCell id="EWCJP9FTuBSWdqRKk12x-60" value="&lt;font style=&quot;font-size: 8px;&quot;&gt;ubicacion&lt;/font&gt;" style="text;html=1;align=center;verticalAlign=middle;resizable=0;points=[];autosize=1;strokeColor=none;fillColor=none;rotation=-60;" parent="1" vertex="1">
          <mxGeometry x="-68" y="504" width="70" height="30" as="geometry" />
        </mxCell>
        <mxCell id="EWCJP9FTuBSWdqRKk12x-61" value="&lt;font style=&quot;font-size: 8px;&quot;&gt;tamanio&lt;/font&gt;" style="text;html=1;align=center;verticalAlign=middle;resizable=0;points=[];autosize=1;strokeColor=none;fillColor=none;rotation=-60;" parent="1" vertex="1">
          <mxGeometry x="-44" y="508" width="60" height="30" as="geometry" />
        </mxCell>
        <mxCell id="EWCJP9FTuBSWdqRKk12x-62" value="" style="ellipse;whiteSpace=wrap;html=1;aspect=fixed;fillColor=light-dark(#FFFFFF,#FFFFFF);" parent="1" vertex="1">
          <mxGeometry x="-66" y="542" width="8" height="8" as="geometry" />
        </mxCell>
        <mxCell id="EWCJP9FTuBSWdqRKk12x-63" style="edgeStyle=orthogonalEdgeStyle;rounded=0;orthogonalLoop=1;jettySize=auto;html=1;endArrow=none;startFill=0;" parent="1" edge="1">
          <mxGeometry relative="1" as="geometry">
            <mxPoint x="-62" y="570" as="targetPoint" />
            <mxPoint x="-62" y="550" as="sourcePoint" />
          </mxGeometry>
        </mxCell>
        <mxCell id="EWCJP9FTuBSWdqRKk12x-66" value="" style="group" parent="1" vertex="1" connectable="0">
          <mxGeometry x="174" y="1001" width="8" height="28" as="geometry" />
        </mxCell>
        <mxCell id="EWCJP9FTuBSWdqRKk12x-67" value="" style="ellipse;whiteSpace=wrap;html=1;aspect=fixed;" parent="EWCJP9FTuBSWdqRKk12x-66" vertex="1">
          <mxGeometry width="8" height="8" as="geometry" />
        </mxCell>
        <mxCell id="EWCJP9FTuBSWdqRKk12x-68" style="edgeStyle=orthogonalEdgeStyle;rounded=0;orthogonalLoop=1;jettySize=auto;html=1;endArrow=none;startFill=0;" parent="EWCJP9FTuBSWdqRKk12x-66" edge="1">
          <mxGeometry relative="1" as="geometry">
            <mxPoint x="4" y="28" as="targetPoint" />
            <mxPoint x="4" y="8" as="sourcePoint" />
          </mxGeometry>
        </mxCell>
        <mxCell id="EWCJP9FTuBSWdqRKk12x-69" value="" style="group" parent="1" vertex="1" connectable="0">
          <mxGeometry x="194" y="1001" width="8" height="28" as="geometry" />
        </mxCell>
        <mxCell id="EWCJP9FTuBSWdqRKk12x-70" value="" style="ellipse;whiteSpace=wrap;html=1;aspect=fixed;" parent="EWCJP9FTuBSWdqRKk12x-69" vertex="1">
          <mxGeometry width="8" height="8" as="geometry" />
        </mxCell>
        <mxCell id="EWCJP9FTuBSWdqRKk12x-71" style="edgeStyle=orthogonalEdgeStyle;rounded=0;orthogonalLoop=1;jettySize=auto;html=1;endArrow=none;startFill=0;" parent="EWCJP9FTuBSWdqRKk12x-69" edge="1">
          <mxGeometry relative="1" as="geometry">
            <mxPoint x="4" y="28" as="targetPoint" />
            <mxPoint x="4" y="8" as="sourcePoint" />
          </mxGeometry>
        </mxCell>
        <mxCell id="EWCJP9FTuBSWdqRKk12x-72" value="&lt;font style=&quot;font-size: 8px;&quot;&gt;dni&lt;/font&gt;" style="text;html=1;align=center;verticalAlign=middle;resizable=0;points=[];autosize=1;strokeColor=none;fillColor=none;rotation=-60;" parent="1" vertex="1">
          <mxGeometry x="119" y="976" width="40" height="30" as="geometry" />
        </mxCell>
        <mxCell id="EWCJP9FTuBSWdqRKk12x-73" value="" style="group" parent="1" vertex="1" connectable="0">
          <mxGeometry x="154" y="1001" width="8" height="28" as="geometry" />
        </mxCell>
        <mxCell id="EWCJP9FTuBSWdqRKk12x-74" value="" style="ellipse;whiteSpace=wrap;html=1;aspect=fixed;" parent="EWCJP9FTuBSWdqRKk12x-73" vertex="1">
          <mxGeometry width="8" height="8" as="geometry" />
        </mxCell>
        <mxCell id="EWCJP9FTuBSWdqRKk12x-75" style="edgeStyle=orthogonalEdgeStyle;rounded=0;orthogonalLoop=1;jettySize=auto;html=1;endArrow=none;startFill=0;" parent="EWCJP9FTuBSWdqRKk12x-73" edge="1">
          <mxGeometry relative="1" as="geometry">
            <mxPoint x="4" y="28" as="targetPoint" />
            <mxPoint x="4" y="8" as="sourcePoint" />
          </mxGeometry>
        </mxCell>
        <mxCell id="EWCJP9FTuBSWdqRKk12x-76" value="&lt;font style=&quot;font-size: 8px;&quot;&gt;fecha_nacimiento&lt;/font&gt;" style="text;html=1;align=center;verticalAlign=middle;resizable=0;points=[];autosize=1;strokeColor=none;fillColor=none;rotation=-60;" parent="1" vertex="1">
          <mxGeometry x="125" y="949" width="100" height="30" as="geometry" />
        </mxCell>
        <mxCell id="EWCJP9FTuBSWdqRKk12x-77" value="&lt;font style=&quot;font-size: 8px;&quot;&gt;pos_habitual&lt;/font&gt;" style="text;html=1;align=center;verticalAlign=middle;resizable=0;points=[];autosize=1;strokeColor=none;fillColor=none;rotation=-60;" parent="1" vertex="1">
          <mxGeometry x="170" y="957" width="80" height="30" as="geometry" />
        </mxCell>
        <mxCell id="EWCJP9FTuBSWdqRKk12x-78" value="&lt;font style=&quot;font-size: 8px;&quot;&gt;direccion&lt;/font&gt;" style="text;html=1;align=center;verticalAlign=middle;resizable=0;points=[];autosize=1;strokeColor=none;fillColor=none;rotation=-60;" parent="1" vertex="1">
          <mxGeometry x="152" y="963" width="70" height="30" as="geometry" />
        </mxCell>
        <mxCell id="EWCJP9FTuBSWdqRKk12x-79" value="" style="ellipse;whiteSpace=wrap;html=1;aspect=fixed;fillColor=light-dark(#FFFFFF,#FFFFFF);" parent="1" vertex="1">
          <mxGeometry x="134" y="1001" width="8" height="8" as="geometry" />
        </mxCell>
        <mxCell id="EWCJP9FTuBSWdqRKk12x-80" style="edgeStyle=orthogonalEdgeStyle;rounded=0;orthogonalLoop=1;jettySize=auto;html=1;endArrow=none;startFill=0;" parent="1" edge="1">
          <mxGeometry relative="1" as="geometry">
            <mxPoint x="138" y="1029" as="targetPoint" />
            <mxPoint x="138" y="1009" as="sourcePoint" />
          </mxGeometry>
        </mxCell>
        <mxCell id="EWCJP9FTuBSWdqRKk12x-85" value="" style="group" parent="1" vertex="1" connectable="0">
          <mxGeometry x="459.9996189432334" y="699.9988568297003" width="132.98076211353327" height="167.47114317029974" as="geometry" />
        </mxCell>
        <mxCell id="EWCJP9FTuBSWdqRKk12x-86" value="Actividad" style="rounded=0;whiteSpace=wrap;html=1;" parent="EWCJP9FTuBSWdqRKk12x-85" vertex="1">
          <mxGeometry x="4" y="107.47" width="120" height="60" as="geometry" />
        </mxCell>
        <mxCell id="EWCJP9FTuBSWdqRKk12x-87" value="" style="group" parent="EWCJP9FTuBSWdqRKk12x-85" vertex="1" connectable="0">
          <mxGeometry x="68.49038105676664" y="79.47114317029974" width="8" height="28" as="geometry" />
        </mxCell>
        <mxCell id="EWCJP9FTuBSWdqRKk12x-88" value="" style="ellipse;whiteSpace=wrap;html=1;aspect=fixed;" parent="EWCJP9FTuBSWdqRKk12x-87" vertex="1">
          <mxGeometry width="8" height="8" as="geometry" />
        </mxCell>
        <mxCell id="EWCJP9FTuBSWdqRKk12x-89" style="edgeStyle=orthogonalEdgeStyle;rounded=0;orthogonalLoop=1;jettySize=auto;html=1;endArrow=none;startFill=0;" parent="EWCJP9FTuBSWdqRKk12x-87" edge="1">
          <mxGeometry relative="1" as="geometry">
            <mxPoint x="4" y="28" as="targetPoint" />
            <mxPoint x="4" y="8" as="sourcePoint" />
          </mxGeometry>
        </mxCell>
        <mxCell id="EWCJP9FTuBSWdqRKk12x-90" value="&lt;font style=&quot;font-size: 8px;&quot;&gt;nombre&lt;/font&gt;" style="text;html=1;align=center;verticalAlign=middle;resizable=0;points=[];autosize=1;strokeColor=none;fillColor=none;rotation=-60;" parent="EWCJP9FTuBSWdqRKk12x-85" vertex="1">
          <mxGeometry x="11.490381056766637" y="48.47114317029974" width="50" height="30" as="geometry" />
        </mxCell>
        <mxCell id="EWCJP9FTuBSWdqRKk12x-91" value="" style="group" parent="EWCJP9FTuBSWdqRKk12x-85" vertex="1" connectable="0">
          <mxGeometry x="48.49038105676664" y="79.47114317029974" width="8" height="28" as="geometry" />
        </mxCell>
        <mxCell id="EWCJP9FTuBSWdqRKk12x-92" value="" style="ellipse;whiteSpace=wrap;html=1;aspect=fixed;" parent="EWCJP9FTuBSWdqRKk12x-91" vertex="1">
          <mxGeometry width="8" height="8" as="geometry" />
        </mxCell>
        <mxCell id="EWCJP9FTuBSWdqRKk12x-93" style="edgeStyle=orthogonalEdgeStyle;rounded=0;orthogonalLoop=1;jettySize=auto;html=1;endArrow=none;startFill=0;" parent="EWCJP9FTuBSWdqRKk12x-91" edge="1">
          <mxGeometry relative="1" as="geometry">
            <mxPoint x="4" y="28" as="targetPoint" />
            <mxPoint x="4" y="8" as="sourcePoint" />
          </mxGeometry>
        </mxCell>
        <mxCell id="EWCJP9FTuBSWdqRKk12x-94" value="&lt;font style=&quot;font-size: 8px;&quot;&gt;descripcion&lt;/font&gt;" style="text;html=1;align=center;verticalAlign=middle;resizable=0;points=[];autosize=1;strokeColor=none;fillColor=none;rotation=-60;" parent="EWCJP9FTuBSWdqRKk12x-85" vertex="1">
          <mxGeometry x="23.490381056766637" y="37.47114317029974" width="80" height="30" as="geometry" />
        </mxCell>
        <mxCell id="EWCJP9FTuBSWdqRKk12x-95" value="&lt;font style=&quot;font-size: 8px;&quot;&gt;fecha_inicio&lt;/font&gt;" style="text;html=1;align=center;verticalAlign=middle;resizable=0;points=[];autosize=1;strokeColor=none;fillColor=none;rotation=-60;" parent="EWCJP9FTuBSWdqRKk12x-85" vertex="1">
          <mxGeometry x="44.49038105676664" y="35.47114317029974" width="80" height="30" as="geometry" />
        </mxCell>
        <mxCell id="EWCJP9FTuBSWdqRKk12x-96" value="" style="ellipse;whiteSpace=wrap;html=1;aspect=fixed;fillColor=light-dark(#FFFFFF,#FFFFFF);" parent="EWCJP9FTuBSWdqRKk12x-85" vertex="1">
          <mxGeometry x="28.490381056766637" y="79.47114317029974" width="8" height="8" as="geometry" />
        </mxCell>
        <mxCell id="EWCJP9FTuBSWdqRKk12x-97" style="edgeStyle=orthogonalEdgeStyle;rounded=0;orthogonalLoop=1;jettySize=auto;html=1;endArrow=none;startFill=0;" parent="EWCJP9FTuBSWdqRKk12x-85" edge="1">
          <mxGeometry relative="1" as="geometry">
            <mxPoint x="32.49038105676664" y="107.47114317029974" as="targetPoint" />
            <mxPoint x="32.49038105676664" y="87.47114317029974" as="sourcePoint" />
          </mxGeometry>
        </mxCell>
        <mxCell id="EWCJP9FTuBSWdqRKk12x-98" value="" style="group" parent="EWCJP9FTuBSWdqRKk12x-85" vertex="1" connectable="0">
          <mxGeometry x="89.49038105676664" y="79.47114317029974" width="8" height="28" as="geometry" />
        </mxCell>
        <mxCell id="EWCJP9FTuBSWdqRKk12x-99" value="" style="ellipse;whiteSpace=wrap;html=1;aspect=fixed;" parent="EWCJP9FTuBSWdqRKk12x-98" vertex="1">
          <mxGeometry width="8" height="8" as="geometry" />
        </mxCell>
        <mxCell id="EWCJP9FTuBSWdqRKk12x-100" style="edgeStyle=orthogonalEdgeStyle;rounded=0;orthogonalLoop=1;jettySize=auto;html=1;endArrow=none;startFill=0;" parent="EWCJP9FTuBSWdqRKk12x-98" edge="1">
          <mxGeometry relative="1" as="geometry">
            <mxPoint x="4" y="28" as="targetPoint" />
            <mxPoint x="4" y="8" as="sourcePoint" />
          </mxGeometry>
        </mxCell>
        <mxCell id="EWCJP9FTuBSWdqRKk12x-101" value="&lt;font style=&quot;font-size: 8px;&quot;&gt;fecha_fin(0,1)&lt;/font&gt;" style="text;html=1;align=center;verticalAlign=middle;resizable=0;points=[];autosize=1;strokeColor=none;fillColor=none;rotation=-60;" parent="EWCJP9FTuBSWdqRKk12x-85" vertex="1">
          <mxGeometry x="63.49038105676664" y="31.47114317029974" width="90" height="30" as="geometry" />
        </mxCell>
        <mxCell id="EWCJP9FTuBSWdqRKk12x-102" value="" style="endArrow=none;html=1;rounded=0;exitX=0.25;exitY=1;exitDx=0;exitDy=0;entryX=0.5;entryY=0;entryDx=0;entryDy=0;" parent="1" source="EWCJP9FTuBSWdqRKk12x-1" target="EWCJP9FTuBSWdqRKk12x-103" edge="1">
          <mxGeometry width="50" height="50" relative="1" as="geometry">
            <mxPoint x="370" y="530" as="sourcePoint" />
            <mxPoint x="240" y="510" as="targetPoint" />
          </mxGeometry>
        </mxCell>
        <mxCell id="EWCJP9FTuBSWdqRKk12x-103" value="inscripto" style="rhombus;whiteSpace=wrap;html=1;" parent="1" vertex="1">
          <mxGeometry x="300" y="710" width="80" height="80" as="geometry" />
        </mxCell>
        <mxCell id="EWCJP9FTuBSWdqRKk12x-105" value="jug_cas" style="rhombus;whiteSpace=wrap;html=1;" parent="1" vertex="1">
          <mxGeometry x="-83" y="1019" width="80" height="80" as="geometry" />
        </mxCell>
        <mxCell id="EWCJP9FTuBSWdqRKk12x-111" value="" style="endArrow=none;html=1;rounded=0;exitX=0.5;exitY=1;exitDx=0;exitDy=0;entryX=0.5;entryY=0;entryDx=0;entryDy=0;" parent="1" source="EWCJP9FTuBSWdqRKk12x-12" target="EWCJP9FTuBSWdqRKk12x-105" edge="1">
          <mxGeometry width="50" height="50" relative="1" as="geometry">
            <mxPoint x="-38" y="968" as="sourcePoint" />
            <mxPoint x="162" y="978" as="targetPoint" />
          </mxGeometry>
        </mxCell>
        <mxCell id="EWCJP9FTuBSWdqRKk12x-112" value="" style="endArrow=none;html=1;rounded=0;entryX=0;entryY=0.5;entryDx=0;entryDy=0;exitX=1;exitY=0.5;exitDx=0;exitDy=0;" parent="1" source="EWCJP9FTuBSWdqRKk12x-105" target="EWCJP9FTuBSWdqRKk12x-11" edge="1">
          <mxGeometry width="50" height="50" relative="1" as="geometry">
            <mxPoint x="1" y="1067" as="sourcePoint" />
            <mxPoint x="158" y="880" as="targetPoint" />
          </mxGeometry>
        </mxCell>
        <mxCell id="EWCJP9FTuBSWdqRKk12x-113" value="(0,n)" style="text;html=1;align=center;verticalAlign=middle;resizable=0;points=[];autosize=1;strokeColor=none;fillColor=none;" parent="1" vertex="1">
          <mxGeometry x="-42" y="870" width="60" height="30" as="geometry" />
        </mxCell>
        <mxCell id="EWCJP9FTuBSWdqRKk12x-114" value="(1,n)" style="text;html=1;align=center;verticalAlign=middle;resizable=0;points=[];autosize=1;strokeColor=none;fillColor=none;" parent="1" vertex="1">
          <mxGeometry x="46" y="1029" width="60" height="30" as="geometry" />
        </mxCell>
        <mxCell id="EWCJP9FTuBSWdqRKk12x-119" value="(0,n)" style="text;html=1;align=center;verticalAlign=middle;resizable=0;points=[];autosize=1;strokeColor=none;fillColor=none;" parent="1" vertex="1">
          <mxGeometry x="292" y="684" width="60" height="30" as="geometry" />
        </mxCell>
        <mxCell id="EWCJP9FTuBSWdqRKk12x-120" value="(0,n)" style="text;html=1;align=center;verticalAlign=middle;resizable=0;points=[];autosize=1;strokeColor=none;fillColor=none;" parent="1" vertex="1">
          <mxGeometry x="410" y="810" width="60" height="30" as="geometry" />
        </mxCell>
        <mxCell id="EWCJP9FTuBSWdqRKk12x-121" value="" style="ellipse;whiteSpace=wrap;html=1;aspect=fixed;fillColor=light-dark(#FFFFFF,#FFFFFF);" parent="1" vertex="1">
          <mxGeometry x="325" y="542" width="8" height="8" as="geometry" />
        </mxCell>
        <mxCell id="EWCJP9FTuBSWdqRKk12x-122" style="edgeStyle=orthogonalEdgeStyle;rounded=0;orthogonalLoop=1;jettySize=auto;html=1;endArrow=none;startFill=0;" parent="1" edge="1">
          <mxGeometry relative="1" as="geometry">
            <mxPoint x="329" y="570" as="targetPoint" />
            <mxPoint x="329" y="550" as="sourcePoint" />
          </mxGeometry>
        </mxCell>
        <mxCell id="EWCJP9FTuBSWdqRKk12x-123" value="&lt;font style=&quot;font-size: 8px;&quot;&gt;id&lt;/font&gt;" style="text;html=1;align=center;verticalAlign=middle;resizable=0;points=[];autosize=1;strokeColor=none;fillColor=none;rotation=-60;" parent="1" vertex="1">
          <mxGeometry x="313" y="516" width="30" height="30" as="geometry" />
        </mxCell>
        <mxCell id="EWCJP9FTuBSWdqRKk12x-124" style="edgeStyle=orthogonalEdgeStyle;rounded=0;orthogonalLoop=1;jettySize=auto;html=1;entryX=0.5;entryY=1;entryDx=0;entryDy=0;endArrow=none;startFill=0;exitX=0;exitY=0.5;exitDx=0;exitDy=0;" parent="1" source="EWCJP9FTuBSWdqRKk12x-86" target="EWCJP9FTuBSWdqRKk12x-103" edge="1">
          <mxGeometry relative="1" as="geometry">
            <mxPoint x="540" y="830" as="sourcePoint" />
          </mxGeometry>
        </mxCell>
        <mxCell id="EWCJP9FTuBSWdqRKk12x-129" value="" style="group" parent="1" vertex="1" connectable="0">
          <mxGeometry x="-81" y="1025" width="8" height="28" as="geometry" />
        </mxCell>
        <mxCell id="EWCJP9FTuBSWdqRKk12x-130" value="" style="ellipse;whiteSpace=wrap;html=1;aspect=fixed;" parent="EWCJP9FTuBSWdqRKk12x-129" vertex="1">
          <mxGeometry width="8" height="8" as="geometry" />
        </mxCell>
        <mxCell id="EWCJP9FTuBSWdqRKk12x-131" style="edgeStyle=orthogonalEdgeStyle;rounded=0;orthogonalLoop=1;jettySize=auto;html=1;endArrow=none;startFill=0;" parent="EWCJP9FTuBSWdqRKk12x-129" edge="1">
          <mxGeometry relative="1" as="geometry">
            <mxPoint x="4" y="28" as="targetPoint" />
            <mxPoint x="4" y="8" as="sourcePoint" />
          </mxGeometry>
        </mxCell>
        <mxCell id="EWCJP9FTuBSWdqRKk12x-132" value="" style="group" parent="1" vertex="1" connectable="0">
          <mxGeometry x="-11" y="1027" width="8" height="28" as="geometry" />
        </mxCell>
        <mxCell id="EWCJP9FTuBSWdqRKk12x-133" value="" style="ellipse;whiteSpace=wrap;html=1;aspect=fixed;" parent="EWCJP9FTuBSWdqRKk12x-132" vertex="1">
          <mxGeometry width="8" height="8" as="geometry" />
        </mxCell>
        <mxCell id="EWCJP9FTuBSWdqRKk12x-134" style="edgeStyle=orthogonalEdgeStyle;rounded=0;orthogonalLoop=1;jettySize=auto;html=1;endArrow=none;startFill=0;" parent="EWCJP9FTuBSWdqRKk12x-132" edge="1">
          <mxGeometry relative="1" as="geometry">
            <mxPoint x="4" y="28" as="targetPoint" />
            <mxPoint x="4" y="8" as="sourcePoint" />
          </mxGeometry>
        </mxCell>
        <mxCell id="EWCJP9FTuBSWdqRKk12x-138" value="&lt;font style=&quot;font-size: 8px;&quot;&gt;fecha_fin(0,1)&lt;/font&gt;" style="text;html=1;align=center;verticalAlign=middle;resizable=0;points=[];autosize=1;strokeColor=none;fillColor=none;rotation=-60;" parent="1" vertex="1">
          <mxGeometry x="-38" y="978" width="90" height="30" as="geometry" />
        </mxCell>
        <mxCell id="EWCJP9FTuBSWdqRKk12x-139" value="&lt;font style=&quot;font-size: 8px;&quot;&gt;fecha_inicio&lt;/font&gt;" style="text;html=1;align=center;verticalAlign=middle;resizable=0;points=[];autosize=1;strokeColor=none;fillColor=none;rotation=-60;" parent="1" vertex="1">
          <mxGeometry x="-106" y="980" width="80" height="30" as="geometry" />
        </mxCell>
        <mxCell id="EWCJP9FTuBSWdqRKk12x-143" value="" style="group" parent="1" vertex="1" connectable="0">
          <mxGeometry x="-4" y="782" width="8" height="28" as="geometry" />
        </mxCell>
        <mxCell id="EWCJP9FTuBSWdqRKk12x-144" value="" style="ellipse;whiteSpace=wrap;html=1;aspect=fixed;" parent="EWCJP9FTuBSWdqRKk12x-143" vertex="1">
          <mxGeometry width="8" height="8" as="geometry" />
        </mxCell>
        <mxCell id="EWCJP9FTuBSWdqRKk12x-145" style="edgeStyle=orthogonalEdgeStyle;rounded=0;orthogonalLoop=1;jettySize=auto;html=1;endArrow=none;startFill=0;" parent="EWCJP9FTuBSWdqRKk12x-143" edge="1">
          <mxGeometry relative="1" as="geometry">
            <mxPoint x="4" y="28" as="targetPoint" />
            <mxPoint x="4" y="8" as="sourcePoint" />
          </mxGeometry>
        </mxCell>
        <mxCell id="EWCJP9FTuBSWdqRKk12x-146" value="&lt;font style=&quot;font-size: 8px;&quot;&gt;division&lt;/font&gt;" style="text;html=1;align=center;verticalAlign=middle;resizable=0;points=[];autosize=1;strokeColor=none;fillColor=none;rotation=-60;" parent="1" vertex="1">
          <mxGeometry x="-24" y="744" width="60" height="30" as="geometry" />
        </mxCell>
        <mxCell id="EWCJP9FTuBSWdqRKk12x-148" value="" style="group" parent="1" vertex="1" connectable="0">
          <mxGeometry x="214" y="1001" width="8" height="28" as="geometry" />
        </mxCell>
        <mxCell id="EWCJP9FTuBSWdqRKk12x-149" value="" style="ellipse;whiteSpace=wrap;html=1;aspect=fixed;" parent="EWCJP9FTuBSWdqRKk12x-148" vertex="1">
          <mxGeometry width="8" height="8" as="geometry" />
        </mxCell>
        <mxCell id="EWCJP9FTuBSWdqRKk12x-150" style="edgeStyle=orthogonalEdgeStyle;rounded=0;orthogonalLoop=1;jettySize=auto;html=1;endArrow=none;startFill=0;" parent="EWCJP9FTuBSWdqRKk12x-148" edge="1">
          <mxGeometry relative="1" as="geometry">
            <mxPoint x="4" y="28" as="targetPoint" />
            <mxPoint x="4" y="8" as="sourcePoint" />
          </mxGeometry>
        </mxCell>
        <mxCell id="EWCJP9FTuBSWdqRKk12x-151" value="&lt;font style=&quot;font-size: 8px;&quot;&gt;division&lt;/font&gt;" style="text;html=1;align=center;verticalAlign=middle;resizable=0;points=[];autosize=1;strokeColor=none;fillColor=none;rotation=-60;" parent="1" vertex="1">
          <mxGeometry x="194" y="965" width="60" height="30" as="geometry" />
        </mxCell>
        <mxCell id="EWCJP9FTuBSWdqRKk12x-152" value="" style="group" parent="1" vertex="1" connectable="0">
          <mxGeometry x="234" y="1001" width="8" height="28" as="geometry" />
        </mxCell>
        <mxCell id="EWCJP9FTuBSWdqRKk12x-153" value="" style="ellipse;whiteSpace=wrap;html=1;aspect=fixed;" parent="EWCJP9FTuBSWdqRKk12x-152" vertex="1">
          <mxGeometry width="8" height="8" as="geometry" />
        </mxCell>
        <mxCell id="EWCJP9FTuBSWdqRKk12x-154" style="edgeStyle=orthogonalEdgeStyle;rounded=0;orthogonalLoop=1;jettySize=auto;html=1;endArrow=none;startFill=0;" parent="EWCJP9FTuBSWdqRKk12x-152" edge="1">
          <mxGeometry relative="1" as="geometry">
            <mxPoint x="4" y="28" as="targetPoint" />
            <mxPoint x="4" y="8" as="sourcePoint" />
          </mxGeometry>
        </mxCell>
        <mxCell id="EWCJP9FTuBSWdqRKk12x-157" value="&lt;font style=&quot;font-size: 8px;&quot;&gt;desc_enferm&lt;/font&gt;" style="text;html=1;align=center;verticalAlign=middle;resizable=0;points=[];autosize=1;strokeColor=none;fillColor=none;rotation=-60;" parent="1" vertex="1">
          <mxGeometry x="209" y="958" width="80" height="30" as="geometry" />
        </mxCell>
        <mxCell id="h1HSGQklRxWJN3mxshpJ-2" value="es_un1" style="rhombus;whiteSpace=wrap;html=1;" parent="1" vertex="1">
          <mxGeometry x="373" y="439" width="80" height="80" as="geometry" />
        </mxCell>
        <mxCell id="h1HSGQklRxWJN3mxshpJ-3" value="es_un2" style="rhombus;whiteSpace=wrap;html=1;" parent="1" vertex="1">
          <mxGeometry x="479" y="439" width="80" height="80" as="geometry" />
        </mxCell>
        <mxCell id="h1HSGQklRxWJN3mxshpJ-4" value="" style="endArrow=none;html=1;rounded=0;exitX=0.5;exitY=0;exitDx=0;exitDy=0;entryX=0.25;entryY=1;entryDx=0;entryDy=0;" parent="1" source="h1HSGQklRxWJN3mxshpJ-2" target="EWCJP9FTuBSWdqRKk12x-5" edge="1">
          <mxGeometry width="50" height="50" relative="1" as="geometry">
            <mxPoint x="540" y="540" as="sourcePoint" />
            <mxPoint x="590" y="490" as="targetPoint" />
          </mxGeometry>
        </mxCell>
        <mxCell id="h1HSGQklRxWJN3mxshpJ-5" value="" style="endArrow=none;html=1;rounded=0;exitX=0.75;exitY=0;exitDx=0;exitDy=0;entryX=0.5;entryY=1;entryDx=0;entryDy=0;" parent="1" source="EWCJP9FTuBSWdqRKk12x-1" target="h1HSGQklRxWJN3mxshpJ-2" edge="1">
          <mxGeometry width="50" height="50" relative="1" as="geometry">
            <mxPoint x="540" y="540" as="sourcePoint" />
            <mxPoint x="590" y="490" as="targetPoint" />
          </mxGeometry>
        </mxCell>
        <mxCell id="h1HSGQklRxWJN3mxshpJ-6" value="" style="endArrow=none;html=1;rounded=0;entryX=0.75;entryY=1;entryDx=0;entryDy=0;exitX=0.5;exitY=0;exitDx=0;exitDy=0;" parent="1" source="h1HSGQklRxWJN3mxshpJ-3" target="EWCJP9FTuBSWdqRKk12x-5" edge="1">
          <mxGeometry width="50" height="50" relative="1" as="geometry">
            <mxPoint x="540" y="540" as="sourcePoint" />
            <mxPoint x="590" y="490" as="targetPoint" />
          </mxGeometry>
        </mxCell>
        <mxCell id="h1HSGQklRxWJN3mxshpJ-7" value="" style="endArrow=none;html=1;rounded=0;exitX=0.5;exitY=1;exitDx=0;exitDy=0;entryX=0.25;entryY=0;entryDx=0;entryDy=0;" parent="1" source="h1HSGQklRxWJN3mxshpJ-3" target="EWCJP9FTuBSWdqRKk12x-3" edge="1">
          <mxGeometry width="50" height="50" relative="1" as="geometry">
            <mxPoint x="540" y="540" as="sourcePoint" />
            <mxPoint x="590" y="490" as="targetPoint" />
          </mxGeometry>
        </mxCell>
        <mxCell id="h1HSGQklRxWJN3mxshpJ-8" value="" style="curved=1;endArrow=none;html=1;rounded=0;startFill=0;" parent="1" edge="1">
          <mxGeometry width="50" height="50" relative="1" as="geometry">
            <mxPoint x="514" y="430" as="sourcePoint" />
            <mxPoint x="500" y="550" as="targetPoint" />
            <Array as="points">
              <mxPoint x="564" y="430" />
              <mxPoint x="570" y="560" />
            </Array>
          </mxGeometry>
        </mxCell>
        <mxCell id="h1HSGQklRxWJN3mxshpJ-9" value="" style="ellipse;whiteSpace=wrap;html=1;aspect=fixed;fillColor=light-dark(#000000, #ffffff);" parent="1" vertex="1">
          <mxGeometry x="493" y="546" width="8" height="8" as="geometry" />
        </mxCell>
        <mxCell id="h1HSGQklRxWJN3mxshpJ-10" value="" style="curved=1;endArrow=none;html=1;rounded=0;startFill=0;" parent="1" edge="1">
          <mxGeometry width="50" height="50" relative="1" as="geometry">
            <mxPoint x="416" y="430" as="sourcePoint" />
            <mxPoint x="370" y="560" as="targetPoint" />
            <Array as="points">
              <mxPoint x="466" y="430" />
              <mxPoint x="450" y="560" />
            </Array>
          </mxGeometry>
        </mxCell>
        <mxCell id="h1HSGQklRxWJN3mxshpJ-11" value="" style="ellipse;whiteSpace=wrap;html=1;aspect=fixed;fillColor=light-dark(#000000, #ffffff);" parent="1" vertex="1">
          <mxGeometry x="364" y="556" width="8" height="8" as="geometry" />
        </mxCell>
        <mxCell id="h1HSGQklRxWJN3mxshpJ-12" value="Telefono" style="rounded=0;whiteSpace=wrap;html=1;" parent="1" vertex="1">
          <mxGeometry x="770" y="339" width="120" height="60" as="geometry" />
        </mxCell>
        <mxCell id="h1HSGQklRxWJN3mxshpJ-15" value="" style="edgeStyle=orthogonalEdgeStyle;rounded=0;orthogonalLoop=1;jettySize=auto;html=1;entryX=0;entryY=0.5;entryDx=0;entryDy=0;endArrow=none;startFill=0;" parent="1" source="EWCJP9FTuBSWdqRKk12x-5" target="h1HSGQklRxWJN3mxshpJ-14" edge="1">
          <mxGeometry relative="1" as="geometry">
            <mxPoint x="530" y="369" as="sourcePoint" />
            <mxPoint x="760" y="369" as="targetPoint" />
          </mxGeometry>
        </mxCell>
        <mxCell id="h1HSGQklRxWJN3mxshpJ-14" value="tiene" style="rhombus;whiteSpace=wrap;html=1;" parent="1" vertex="1">
          <mxGeometry x="610" y="329" width="80" height="80" as="geometry" />
        </mxCell>
        <mxCell id="h1HSGQklRxWJN3mxshpJ-16" value="(0,1)" style="text;html=1;align=center;verticalAlign=middle;resizable=0;points=[];autosize=1;strokeColor=none;fillColor=none;" parent="1" vertex="1">
          <mxGeometry x="370" y="399" width="60" height="30" as="geometry" />
        </mxCell>
        <mxCell id="h1HSGQklRxWJN3mxshpJ-17" value="(0,1)" style="text;html=1;align=center;verticalAlign=middle;resizable=0;points=[];autosize=1;strokeColor=none;fillColor=none;" parent="1" vertex="1">
          <mxGeometry x="506" y="399" width="60" height="30" as="geometry" />
        </mxCell>
        <mxCell id="h1HSGQklRxWJN3mxshpJ-18" value="(1,1)" style="text;html=1;align=center;verticalAlign=middle;resizable=0;points=[];autosize=1;strokeColor=none;fillColor=none;" parent="1" vertex="1">
          <mxGeometry x="354" y="524" width="60" height="30" as="geometry" />
        </mxCell>
        <mxCell id="h1HSGQklRxWJN3mxshpJ-19" value="(1,1)" style="text;html=1;align=center;verticalAlign=middle;resizable=0;points=[];autosize=1;strokeColor=none;fillColor=none;" parent="1" vertex="1">
          <mxGeometry x="474" y="519" width="60" height="30" as="geometry" />
        </mxCell>
        <mxCell id="h1HSGQklRxWJN3mxshpJ-20" value="(1,1)" style="text;html=1;align=center;verticalAlign=middle;resizable=0;points=[];autosize=1;strokeColor=none;fillColor=none;" parent="1" vertex="1">
          <mxGeometry x="710" y="339" width="60" height="30" as="geometry" />
        </mxCell>
        <mxCell id="h1HSGQklRxWJN3mxshpJ-21" value="&lt;font style=&quot;font-size: 8px;&quot;&gt;numero&lt;/font&gt;" style="text;html=1;align=center;verticalAlign=middle;resizable=0;points=[];autosize=1;strokeColor=none;fillColor=none;rotation=-60;" parent="1" vertex="1">
          <mxGeometry x="808" y="276" width="50" height="30" as="geometry" />
        </mxCell>
        <mxCell id="h1HSGQklRxWJN3mxshpJ-25" value="" style="ellipse;whiteSpace=wrap;html=1;aspect=fixed;fillColor=light-dark(#000000, #ffffff);" parent="1" vertex="1">
          <mxGeometry x="825.5" y="311" width="8" height="8" as="geometry" />
        </mxCell>
        <mxCell id="h1HSGQklRxWJN3mxshpJ-26" style="edgeStyle=orthogonalEdgeStyle;rounded=0;orthogonalLoop=1;jettySize=auto;html=1;endArrow=none;startFill=0;strokeColor=default;" parent="1" edge="1">
          <mxGeometry relative="1" as="geometry">
            <mxPoint x="829.5" y="339" as="targetPoint" />
            <mxPoint x="829.5" y="319" as="sourcePoint" />
          </mxGeometry>
        </mxCell>
        <mxCell id="h1HSGQklRxWJN3mxshpJ-27" value="(1,n)" style="text;html=1;align=center;verticalAlign=middle;resizable=0;points=[];autosize=1;strokeColor=none;fillColor=none;" parent="1" vertex="1">
          <mxGeometry x="523" y="340" width="60" height="30" as="geometry" />
        </mxCell>
        <mxCell id="h1HSGQklRxWJN3mxshpJ-28" value="" style="curved=1;endArrow=none;html=1;rounded=0;startFill=0;" parent="1" edge="1">
          <mxGeometry width="50" height="50" relative="1" as="geometry">
            <mxPoint x="581" y="369" as="sourcePoint" />
            <mxPoint x="850" y="330" as="targetPoint" />
            <Array as="points">
              <mxPoint x="600" y="340" />
              <mxPoint x="630" y="320" />
            </Array>
          </mxGeometry>
        </mxCell>
        <mxCell id="h1HSGQklRxWJN3mxshpJ-29" value="" style="ellipse;whiteSpace=wrap;html=1;aspect=fixed;fillColor=light-dark(#000000, #ffffff);" parent="1" vertex="1">
          <mxGeometry x="847" y="326" width="8" height="8" as="geometry" />
        </mxCell>
        <mxCell id="h1HSGQklRxWJN3mxshpJ-33" style="edgeStyle=orthogonalEdgeStyle;rounded=0;orthogonalLoop=1;jettySize=auto;html=1;entryX=0.5;entryY=0;entryDx=0;entryDy=0;exitX=0.5;exitY=1;exitDx=0;exitDy=0;endArrow=none;startFill=0;" parent="1" source="h1HSGQklRxWJN3mxshpJ-30" edge="1">
          <mxGeometry relative="1" as="geometry">
            <mxPoint x="-41.999999999999545" y="764.9999999999995" as="sourcePoint" />
            <mxPoint x="-41" y="810" as="targetPoint" />
          </mxGeometry>
        </mxCell>
        <mxCell id="h1HSGQklRxWJN3mxshpJ-30" value="es_un" style="rhombus;whiteSpace=wrap;html=1;" parent="1" vertex="1">
          <mxGeometry x="-81" y="685" width="80" height="80" as="geometry" />
        </mxCell>
        <mxCell id="h1HSGQklRxWJN3mxshpJ-34" value="" style="curved=1;endArrow=none;html=1;rounded=0;startFill=0;" parent="1" edge="1">
          <mxGeometry width="50" height="50" relative="1" as="geometry">
            <mxPoint x="-41" y="654" as="sourcePoint" />
            <mxPoint x="10" y="799" as="targetPoint" />
            <Array as="points">
              <mxPoint x="-109" y="719" />
              <mxPoint x="-40" y="800" />
              <mxPoint x="-10" y="799" />
            </Array>
          </mxGeometry>
        </mxCell>
        <mxCell id="h1HSGQklRxWJN3mxshpJ-35" value="" style="ellipse;whiteSpace=wrap;html=1;aspect=fixed;fillColor=light-dark(#FFFFFF,#FFFFFF);" parent="1" vertex="1">
          <mxGeometry x="9" y="795" width="8" height="8" as="geometry" />
        </mxCell>
      </root>
    </mxGraphModel>
  </diagram>
</mxfile>
